<svg height="1150" width="720" xmlns="http://www.w3.org/2000/svg">
<rect height="1150" fill="#555" width="720"></rect>
<text fill="#7f7" font-family="Courier New" font-size="12" xml:space="preserve">
<tspan x="10" y="26">10 megabytes installed</tspan>
<tspan x="10" y="42"></tspan>
<tspan x="10" y="58">node_modules</tspan>
<tspan x="10" y="74">└─┬ branch-diff@1.7.0 </tspan>
<tspan x="10" y="90">  ├─┬ bl@1.2.0 </tspan>
<tspan x="10" y="106">  │ └─┬ readable-stream@2.2.9 </tspan>
<tspan x="10" y="122">  │   ├── buffer-shims@1.0.0 </tspan>
<tspan x="10" y="138">  │   ├── core-util-is@1.0.2 </tspan>
<tspan x="10" y="154">  │   ├── inherits@2.0.3 </tspan>
<tspan x="10" y="170">  │   ├── isarray@1.0.0 </tspan>
<tspan x="10" y="186">  │   ├── process-nextick-args@1.0.7 </tspan>
<tspan x="10" y="202">  │   ├── string_decoder@1.0.0 </tspan>
<tspan x="10" y="218">  │   └── util-deprecate@1.0.2 </tspan>
<tspan x="10" y="234">  ├─┬ chalk@1.1.3 </tspan>
<tspan x="10" y="250">  │ ├── ansi-styles@2.2.1 </tspan>
<tspan x="10" y="266">  │ ├── escape-string-regexp@1.0.5 </tspan>
<tspan x="10" y="282">  │ ├─┬ has-ansi@2.0.0 </tspan>
<tspan x="10" y="298">  │ │ └── ansi-regex@2.1.1 </tspan>
<tspan x="10" y="314">  │ ├── strip-ansi@3.0.1 </tspan>
<tspan x="10" y="330">  │ └── supports-color@2.0.0 </tspan>
<tspan x="10" y="346">  ├─┬ changelog-maker@2.2.5 </tspan>
<tspan x="10" y="362">  │ ├─┬ async@2.1.5 </tspan>
<tspan x="10" y="378">  │ │ └── lodash@4.17.4 </tspan>
<tspan x="10" y="394">  │ ├─┬ debug@2.6.3 </tspan>
<tspan x="10" y="410">  │ │ └── ms@0.7.2 </tspan>
<tspan x="10" y="426">  │ ├─┬ ghauth@3.2.1 </tspan>
<tspan x="10" y="442">  │ │ ├─┬ application-config@1.0.1 </tspan>
<tspan x="10" y="458">  │ │ │ └── application-config-path@0.1.0 </tspan>
<tspan x="10" y="474">  │ │ ├─┬ bl@1.1.2 </tspan>
<tspan x="10" y="490">  │ │ │ └─┬ readable-stream@2.0.6 </tspan>
<tspan x="10" y="506">  │ │ │   └── string_decoder@0.10.31 </tspan>
<tspan x="10" y="522">  │ │ ├─┬ hyperquest@2.0.0 </tspan>
<tspan x="10" y="538">  │ │ │ ├─┬ duplexer2@0.0.2 </tspan>
<tspan x="10" y="554">  │ │ │ │ └─┬ readable-stream@1.1.14 </tspan>
<tspan x="10" y="570">  │ │ │ │   ├── isarray@0.0.1 </tspan>
<tspan x="10" y="586">  │ │ │ │   └── string_decoder@0.10.31 </tspan>
<tspan x="10" y="602">  │ │ │ └─┬ through2@0.6.5 </tspan>
<tspan x="10" y="618">  │ │ │   └─┬ readable-stream@1.0.34 </tspan>
<tspan x="10" y="634">  │ │ │     ├── isarray@0.0.1 </tspan>
<tspan x="10" y="650">  │ │ │     └── string_decoder@0.10.31 </tspan>
<tspan x="10" y="666">  │ │ ├─┬ mkdirp@0.5.1 </tspan>
<tspan x="10" y="682">  │ │ │ └── minimist@0.0.8 </tspan>
<tspan x="10" y="698">  │ │ └─┬ read@1.0.7 </tspan>
<tspan x="10" y="714">  │ │   └── mute-stream@0.0.7 </tspan>
<tspan x="10" y="730">  │ └─┬ ghissues@1.1.3 </tspan>
<tspan x="10" y="746">  │   └─┬ ghutils@3.2.1 </tspan>
<tspan x="10" y="762">  │     └─┬ jsonist@1.3.0 </tspan>
<tspan x="10" y="778">  │       ├─┬ bl@1.0.3 </tspan>
<tspan x="10" y="794">  │       │ └─┬ readable-stream@2.0.6 </tspan>
<tspan x="10" y="810">  │       │   └── string_decoder@0.10.31 </tspan>
<tspan x="10" y="826">  │       ├─┬ hyperquest@1.2.0 </tspan>
<tspan x="10" y="842">  │       │ └─┬ through2@0.6.5 </tspan>
<tspan x="10" y="858">  │       │   └─┬ readable-stream@1.0.34 </tspan>
<tspan x="10" y="874">  │       │     └── isarray@0.0.1 </tspan>
<tspan x="10" y="890">  │       └── json-stringify-safe@5.0.1 </tspan>
<tspan x="10" y="906">  ├── commit-stream@1.0.2 </tspan>
<tspan x="10" y="922">  ├── deep-equal@1.0.1 </tspan>
<tspan x="10" y="938">  ├─┬ gitexec@1.0.0 </tspan>
<tspan x="10" y="954">  │ └─┬ bl@1.0.3 </tspan>
<tspan x="10" y="970">  │   └─┬ readable-stream@2.0.6 </tspan>
<tspan x="10" y="986">  │     └── string_decoder@0.10.31 </tspan>
<tspan x="10" y="1002">  ├─┬ list-stream@1.0.1 </tspan>
<tspan x="10" y="1018">  │ ├─┬ readable-stream@2.0.6 </tspan>
<tspan x="10" y="1034">  │ │ └── string_decoder@0.10.31 </tspan>
<tspan x="10" y="1050">  │ └── xtend@4.0.1 </tspan>
<tspan x="10" y="1066">  ├── map-async@0.1.1 </tspan>
<tspan x="10" y="1082">  ├── minimist@1.2.0 </tspan>
<tspan x="10" y="1098">  ├── pkg-to-id@0.0.3 </tspan>
<tspan x="10" y="1114">  ├── split2@2.1.1 </tspan>
<tspan x="10" y="1130">  └── through2@2.0.3</tspan>
</text>
</svg>
